<?xml version="1.0" encoding="utf-8"?>
<!-- Generator: Adobe Illustrator 15.1.0, SVG Export Plug-In . SVG Version: 6.00 Build 0)  -->
<!DOCTYPE svg PUBLIC "-//W3C//DTD SVG 1.1//EN" "http://www.w3.org/Graphics/SVG/1.1/DTD/svg11.dtd">
<svg version="1.1" id="Camada_1" xmlns="http://www.w3.org/2000/svg" xmlns:xlink="http://www.w3.org/1999/xlink" x="0px" y="0px"
	 width="410px" height="455px" viewBox="0 0 410 455" enable-background="new 0 0 410 455" xml:space="preserve">
<g>
	<path fill="#000" d="M61.817,375.35c-21.878-11.788-35.083-28.847-42.447-48.208c-7.108-18.693-8.611-39.165-7.229-58.814
		c1.772-25.158,10.951-45.784,19.63-65.283c15.305-34.394,28.747-64.596-22.174-111.601l-8.563-7.905l7.06-9.267l33.473-43.929
		l5.137-6.74l8.23,2.134c13.498,3.503,27.063,6.525,40.879,8.243c12.996,1.614,25.969,2.032,38.929,0.516
		c-0.501,0.071-0.632,0.092,0.551-0.065c0.225-0.029,0.448-0.056,0.674-0.085l-0.001-0.006c-0.261,0.035-0.483,0.065-0.672,0.091
		c-0.175,0.021-0.353,0.042-0.529,0.063c-0.008,0.001-0.014,0.001-0.022,0.002c0.006-0.001,0.016-0.002,0.022-0.002
		c0.354-0.051,0.878-0.124,1.258-0.18l0.022-0.022c0.725-0.089,0.492-0.051,0.002,0.019l0.003,0.026
		c2.589-0.33,5.404-0.791,8.442-1.381c2.792-0.542,5.491-1.16,8.091-1.854c13.443-3.583,25.488-9.361,36.007-17.25l0.401-0.301
		l8.752-6.041l7.258-5.01l7.258,5.01l8.752,6.041l0.351,0.25l0.016,0.013l0.05,0.049c1.586,1.189,3.708,2.629,6.359,4.317
		c2.634,1.677,4.828,2.983,6.578,3.919c11.757,6.283,25.015,10.39,39.643,12.243c13.376,1.693,26.768,1.304,40.18-0.363
		c13.816-1.718,27.382-4.74,40.881-8.243l8.23-2.134l5.137,6.74l33.474,43.929l7.057,9.267l-8.562,7.905
		c-52.032,48.032-37.922,78.88-21.683,114.379c8.55,18.688,17.6,38.465,20.569,62.314l0.003,0.022
		c0.659,5.297,1.062,10.664,1.135,16.037c0.078,5.374-0.176,10.842-0.83,16.362c-3.414,28.883-17.539,56.539-51.412,74.791
		l-137.128,73.886l-6.057,3.265l-6.057-3.265L61.817,375.35z M43.299,318.03c5.314,13.975,14.844,26.287,30.631,34.794
		l131.071,70.62l131.071-70.62c25.114-13.532,35.575-33.96,38.094-55.269c0.504-4.241,0.696-8.614,0.635-13.059
		c-0.065-4.441-0.394-8.869-0.938-13.233l-0.005-0.022c-2.511-20.148-10.66-37.967-18.362-54.805
		c-19.446-42.506-36.453-79.694,19.179-135.715l-21.467-28.168c-11.977,2.918-23.941,5.37-35.916,6.858
		c-15.131,1.88-30.556,2.278-46.489,0.261c-17.741-2.247-33.947-7.297-48.451-15.045c-3.354-1.792-6.15-3.4-8.381-4.82
		c-2.117-1.348-4.61-3.092-7.477-5.231l-1.493-1.031l-1.493,1.031c-13.111,9.753-27.969,16.873-44.417,21.256
		c-3.245,0.865-6.511,1.618-9.792,2.254c-3.007,0.583-6.351,1.11-10.03,1.578l0.001,0.007c-0.044,0.004-0.084,0.011-0.126,0.016
		l-0.001-0.008c-15.911,2.01-31.318,1.611-46.434-0.267c-11.974-1.488-23.938-3.94-35.916-6.858l-21.465,28.17
		c54.42,54.873,38.165,91.401,19.771,132.733c-7.704,17.307-15.852,35.615-17.326,56.573C36.61,286.551,37.73,303.388,43.299,318.03
		L43.299,318.03z M135.968,34.346c0.008-0.001,0.018-0.001,0.027-0.003l0.002-0.003h0.019c0.011-0.001,0.022-0.001,0.034-0.003
		l-0.003-0.026c-0.008,0.001-0.016,0.003-0.024,0.003l-0.025,0.026h-0.031L135.968,34.346z M139.145,59.688
		c-4.301,0.574,2.2-0.239,0.004,0.037L139.145,59.688z M139.145,59.688"/>
	<path fill="#FFF" d="M67.874,364.088c-37.668-20.297-45.464-58.738-42.917-94.909c5.052-71.752,78.267-108.713-6.7-187.147
		l33.472-43.93c28.239,7.331,56.56,12.62,85.868,8.907c22.49-2.848,42.169-10.581,58.653-22.943l8.751-6.041l8.751,6.041
		c16.484,12.363,36.164,20.095,58.651,22.943c29.312,3.713,57.629-1.576,85.868-8.907l33.472,43.93
		c-84.967,78.435-14.088,116.101-5.169,187.658c4.302,34.512-3.471,72.32-44.446,94.398l-137.127,73.886L67.874,364.088z
		 M67.874,364.088"/>
	<path fill="#000" d="M346.906,53.659L59.281,207.443c6.177-11.843,10.489-25.19,11.904-39.189
		c4.639-25.761-1.626-53.016-35.856-87.531l21.265-27.908c-0.001,0-0.001,0-0.001,0c11.709,2.956,23.173,5.073,34.309,6.361
		c0.604,0.08,1.205,0.16,1.808,0.235c15.116,1.878,30.523,2.277,46.434,0.267l0.001,0.008c0.042-0.005,0.082-0.012,0.126-0.016
		l-0.001-0.007c3.679-0.467,7.023-0.995,10.03-1.578c3.281-0.637,6.547-1.389,9.792-2.254c3.66-0.975,7.307-2.085,10.806-3.33
		c-0.025,0.001-0.053,0.003-0.078,0.004c12.984-4.357,24.798-10.441,35.182-18.231c23.725,17.798,52.764,26.906,86.819,26.737
		c8.605,0.027,17.084-0.559,25.472-1.6c9.459-1.176,18.912-2.954,28.369-5.087L346.906,53.659z M139.145,59.688
		c-4.301,0.574,2.2-0.239,0.004,0.037L139.145,59.688z M139.145,59.688"/>
	<path fill="#000" d="M96.314,235.52l12.322-6.703c1.144,1.933,1.877,3.185,2.191,3.761c1.699,3.123,2.561,5.813,2.586,8.077
		c0.051,2.527-1.218,4.961-3.815,7.291c-2.592,2.34-7.557,5.498-14.884,9.484c-7.694,4.185-13.264,7.021-16.689,8.504
		c-3.426,1.483-6.206,2.248-8.324,2.301c-1.895,0.035-3.573-0.401-5.01-1.309c-1.437-0.909-2.88-2.43-4.34-4.583
		c-1.173-1.746-3.067-5.013-5.679-9.814c-2.546-4.681-4.292-8.105-5.249-10.271c-0.946-2.172-1.475-3.966-1.581-5.389
		c-0.275-3.178,1.103-6.089,4.127-8.716c3.024-2.629,9.739-6.781,20.163-12.45c5.215-2.837,9.071-4.778,11.563-5.833
		c2.507-1.05,4.631-1.627,6.386-1.746c2.314-0.131,4.301,0.464,5.99,1.76c1.677,1.301,3.415,3.605,5.225,6.931
		c0.093,0.171,0.452,0.854,1.064,2.027l-12.314,6.699c-0.792-1.311-1.373-2.162-1.72-2.563c-0.358-0.394-0.784-0.646-1.283-0.768
		c-0.701-0.158-2.058,0.188-4.079,1.053c-2.015,0.846-4.965,2.334-8.857,4.451c-3.852,2.095-6.476,3.628-7.859,4.603
		c-1.392,0.979-2.256,1.871-2.603,2.701c-0.403,0.992-0.371,2.258,0.101,3.823c0.482,1.559,1.556,3.869,3.221,6.932
		c1.661,3.054,2.968,5.145,3.905,6.262c0.935,1.115,1.918,1.746,2.958,1.899c0.979,0.162,2.274-0.083,3.879-0.72
		c1.61-0.653,4.327-2.015,8.159-4.099c4.711-2.563,7.82-4.358,9.305-5.363c1.479-1.015,2.353-1.937,2.617-2.773
		C98.146,239.896,97.649,238.068,96.314,235.52L96.314,235.52z M101.568,200.5l44.783-24.364l5.17,9.502l-32.644,17.757l3.18,5.844
		l30.984-16.856l4.832,8.886l-30.981,16.857l3.523,6.479l32.875-17.883l5.284,9.713l-45.014,24.49L101.568,200.5z M218.375,189.344
		l-7.191-4.958l-26.737,14.546l0.254,8.73l-14.071,7.656l-0.552-52.09l19.135-10.409l43.141,28.918L218.375,189.344z
		 M202.049,177.879l-16.119-11.064l-2.456,1.336l0.531,19.543L202.049,177.879z M236.239,179.624l-21.991-40.425l29.771-16.196
		c6.996-3.779,11.219-5.985,12.675-6.607c1.456-0.621,3.039-0.893,4.751-0.803c2.042,0.095,3.788,0.797,5.254,2.12
		c1.463,1.314,3.137,3.717,5.039,7.216c1.601,2.941,2.589,5.194,2.979,6.777c0.389,1.583,0.301,3.058-0.259,4.438
		c-0.598,1.479-1.899,2.986-3.911,4.513c2.691-1.216,4.947-1.474,6.778-0.807c1.065,0.416,1.986,1.122,2.762,2.114
		c0.771,1.008,2.111,3.253,4.014,6.751l2.047,3.761l-12.142,6.604l-1.178-2.164c-1.226-2.254-2.176-3.807-2.87-4.674
		c-0.694-0.866-1.398-1.438-2.134-1.708c-0.708-0.217-1.499-0.179-2.369,0.124c-0.871,0.302-2.581,1.155-5.129,2.541l-17.357,9.443
		l5.593,10.28L236.239,179.624z M237.475,152.542l17.327-9.426c2.989-1.706,4.761-2.735,5.319-3.104
		c0.549-0.365,0.972-0.791,1.243-1.278c0.345-0.621,0.45-1.319,0.314-2.096c-0.151-0.783-0.585-1.845-1.315-3.189
		c-0.714-1.314-1.375-2.238-1.986-2.757c-0.594-0.517-1.277-0.76-2.053-0.718c-0.544,0.035-1.12,0.205-1.749,0.493
		c-0.619,0.285-2.364,1.195-5.216,2.721l-17.297,9.409L237.475,152.542z M336.764,124.936l-7.189-4.956l-26.738,14.544l0.256,8.731
		l-14.07,7.655l-0.553-52.088l19.136-10.411l43.141,28.919L336.764,124.936z M320.44,113.472l-16.121-11.063l-2.456,1.336
		l0.532,19.545L320.44,113.472z M316.863,88.929l2.873-12.614l9.948-2.228l-10.408,16.941L316.863,88.929z M316.863,88.929"/>
	<path fill="#FFF" d="M224.813,65.296c0.861,1.591,1.728,3.182,2.588,4.769c0.862,1.587,1.733,3.176,2.599,4.764h16.793
		c-2.27,0.984-4.533,1.966-6.796,2.947c-2.265,0.981-4.529,1.964-6.793,2.944c0.862,1.589,1.732,3.178,2.594,4.766
		c0.862,1.587,1.733,3.177,2.597,4.764c-2.262-0.981-4.526-1.962-6.789-2.941c-2.265-0.981-4.529-1.965-6.792-2.948
		c-2.269,0.983-4.533,1.967-6.796,2.948c-2.264,0.979-4.528,1.96-6.793,2.941c0.862-1.587,1.733-3.177,2.594-4.764
		c0.861-1.587,1.731-3.177,2.598-4.766c-2.263-0.98-4.527-1.963-6.791-2.944c-2.263-0.981-4.527-1.963-6.792-2.947h16.788
		c0.862-1.587,1.731-3.176,2.594-4.764C223.076,68.478,223.946,66.887,224.813,65.296L224.813,65.296z M224.813,65.296"/>
	<path fill="#FFF" d="M180.319,55.672c1.103,1.728,2.209,3.458,3.311,5.183c1.101,1.726,2.215,3.454,3.322,5.179h21.472
		c-2.901,1.069-5.796,2.138-8.691,3.204c-2.895,1.066-5.79,2.135-8.685,3.201c1.103,1.727,2.215,3.455,3.317,5.179
		c1.101,1.726,2.214,3.454,3.32,5.179c-2.895-1.066-5.79-2.133-8.683-3.199c-2.895-1.065-5.79-2.134-8.685-3.202
		c-2.901,1.067-5.795,2.137-8.688,3.202c-2.896,1.066-5.79,2.133-8.685,3.199c1.101-1.725,2.215-3.453,3.316-5.179
		c1.103-1.725,2.215-3.453,3.322-5.179c-2.895-1.066-5.789-2.135-8.684-3.201c-2.895-1.065-5.788-2.135-8.683-3.204h21.465
		c1.102-1.725,2.215-3.453,3.316-5.179C178.099,59.13,179.212,57.4,180.319,55.672L180.319,55.672z M180.319,55.672"/>
	<path fill="#FFF" d="M127.636,64.049c1.2,1.764,2.405,3.528,3.605,5.289c1.2,1.76,2.411,3.524,3.618,5.283h23.384
		c-3.159,1.091-6.311,2.181-9.464,3.269c-3.152,1.088-6.306,2.178-9.459,3.266c1.2,1.762,2.412,3.525,3.612,5.285
		c1.2,1.761,2.413,3.524,3.618,5.283c-3.152-1.087-6.305-2.175-9.458-3.263c-3.152-1.086-6.305-2.178-9.457-3.268
		c-3.159,1.09-6.311,2.182-9.464,3.268c-3.154,1.088-6.305,2.176-9.458,3.263c1.199-1.758,2.412-3.522,3.612-5.283
		c1.199-1.76,2.412-3.523,3.617-5.285c-3.152-1.088-6.305-2.178-9.458-3.266c-3.152-1.088-6.305-2.178-9.457-3.269h23.378
		c1.2-1.759,2.411-3.522,3.611-5.283S126.429,65.813,127.636,64.049L127.636,64.049z M127.636,64.049"/>
	<path fill="#FFF" d="M89.227,86.197c1.239,2.128,2.484,4.256,3.721,6.381c1.239,2.122,2.49,4.249,3.733,6.372h24.133
		c-3.261,1.315-6.515,2.63-9.766,3.943c-3.253,1.313-6.508,2.627-9.761,3.94c1.238,2.126,2.49,4.253,3.727,6.377
		c1.239,2.124,2.49,4.25,3.734,6.374c-3.254-1.313-6.507-2.625-9.76-3.937c-3.251-1.312-6.506-2.627-9.76-3.943
		c-3.26,1.316-6.513,2.631-9.766,3.943c-3.253,1.313-6.507,2.625-9.76,3.937c1.239-2.124,2.488-4.25,3.727-6.374
		c1.238-2.124,2.49-4.25,3.733-6.377c-3.253-1.313-6.507-2.627-9.76-3.94c-3.253-1.313-6.507-2.628-9.76-3.943h24.125
		c1.239-2.124,2.488-4.25,3.727-6.372C86.732,90.453,87.982,88.325,89.227,86.197L89.227,86.197z M89.227,86.197"/>
	<path fill="#000" d="M125.674,380.301V253.563l-87.05,46.056c0.942,6.381,2.455,12.57,4.676,18.411
		c5.314,13.975,14.844,26.287,30.631,34.794l1.451,0.78l-1-0.531L125.674,380.301z M204.989,422.151l-47.944-26.296V236.965
		l94.113-49.794v209.131L204.989,422.151z M281.946,170.809l56.188-29.537c-4.528,26.23,5.926,50.168,17.361,75.165
		c4.73,10.344,9.632,21.06,13.291,32.456c2.192,7.45,4.008,15.127,5.134,22.84c0.508,4.212,0.819,8.481,0.88,12.765
		c0.062,4.444-0.131,8.817-0.635,13.059c-1.884,15.937-8.209,31.38-21.785,43.815c-4.723,4.215-10.287,8.144-16.846,11.702
		l-9.534,5.177l0.016-0.008l-39.676,21.539l39.66-21.531l-44.055,23.736V170.809z M281.946,170.809"/>
	<path fill="#FFF" d="M124.456,113.595c1.511,2.567,3.027,5.137,4.537,7.699c1.509,2.562,3.034,5.127,4.551,7.689h29.417
		c-3.975,1.587-7.94,3.175-11.906,4.757c-3.965,1.583-7.932,3.17-11.897,4.753c1.509,2.566,3.034,5.131,4.543,7.693
		s3.034,5.129,4.551,7.689c-3.965-1.583-7.931-3.166-11.898-4.748c-3.964-1.583-7.931-3.17-11.897-4.758
		c-3.973,1.587-7.94,3.175-11.904,4.758c-3.967,1.583-7.933,3.165-11.898,4.748c1.509-2.561,3.034-5.127,4.543-7.689
		c1.509-2.562,3.034-5.127,4.551-7.693c-3.967-1.583-7.932-3.17-11.898-4.753c-3.965-1.583-7.93-3.17-11.896-4.757h29.407
		c1.509-2.562,3.034-5.127,4.543-7.689S122.939,116.162,124.456,113.595L124.456,113.595z M124.456,113.595"/>
</g>
<g>
	<polygon fill="#FFF" points="183.049,395.069 183.049,377.432 179.12,377.432 180.768,374.128 187.012,374.128 187.012,395.069 
			"/>
	<polygon fill="#FFF" points="208.633,395.069 208.633,377.432 204.699,377.432 206.349,374.128 212.59,374.128 212.59,395.069 	
		"/>
	<path fill="#FFF" d="M201.257,375.576c-1.213-1.225-2.828-1.838-4.839-1.838c-2.13,0-3.841,0.618-5.129,1.849
		c-1.286,1.238-1.933,2.867-1.933,4.894c0,1.776,0.533,3.237,1.59,4.375c1.063,1.135,2.429,1.704,4.102,1.704
		c0.511,0,0.968-0.045,1.363-0.143c0.396-0.091,0.788-0.238,1.162-0.435l-5.609,9.087h4.709c2.433-3.645,3.985-6.616,5.577-10.715
		c0.548-1.411,0.826-2.714,0.826-3.904C203.077,378.424,202.472,376.805,201.257,375.576z M198.412,382.563
		c-0.541,0.587-1.242,0.88-2.099,0.88c-0.967,0-1.722-0.278-2.261-0.839c-0.542-0.558-0.811-1.331-0.811-2.313
		c0-0.925,0.272-1.672,0.822-2.25c0.55-0.576,1.275-0.865,2.17-0.865c0.918,0,1.648,0.276,2.183,0.84
		c0.538,0.559,0.807,1.318,0.807,2.275C199.222,381.222,198.953,381.977,198.412,382.563z"/>
	<path fill="#FFF" d="M227.559,387.031v-13.293h-3.596l-9.471,14.27v1.816h9.471v5.245h3.596v-5.245h2.065v-2.793H227.559z
		 M224.048,378.76c-0.022,0.338-0.032,0.846-0.032,1.503v6.769h-5.479l4.244-6.498c0.278-0.438,0.528-0.888,0.763-1.343
		c0.232-0.459,0.436-0.917,0.605-1.371C224.102,378.105,224.071,378.421,224.048,378.76z"/>
</g>
</svg>
