<?xml version="1.0" encoding="UTF-8"?>
<svg id="Calque_2" data-name="Calque 2" xmlns="http://www.w3.org/2000/svg" viewBox="0 0 6493.47 9198.7">
  <defs>
    <style>
      .cls-1 {
        fill-rule: evenodd;
      }

      .cls-1, .cls-2 {
        fill: #fff;
      }

      .cls-3 {
        fill: #ffd727;
      }

      .cls-4 {
        fill: #f10;
      }
    </style>
  </defs>
  <g id="Calque_6" data-name="Calque 6">
    <g>
      <polygon class="cls-3" points="3540.26 909.36 3721.07 1469.21 3246.71 1123.36 2772.34 1469.21 2953.15 909.36 2504.63 582.37 3058.67 582.37 3246.71 0 3434.74 582.37 3988.89 582.37 3540.26 909.36"/>
      <path class="cls-2" d="M90.6,3891.05l13.13-181.44,178.64-34.32c607.47-116.66,1036.36-254.49,1434.13-460.88,476.09-247.03,918.18-608.61,1351.56-1105.4l178.69-204.84,178.69,204.84c433.37,496.8,875.47,858.37,1351.56,1105.4,397.77,206.38,826.66,344.21,1434.11,460.88l178.65,34.32,13.14,181.43c11.03,152.42,44.29,869.21-211.35,1770.17h86.13c252.46-904.06,219.12-1622.4,208-1776.16l-17.73-244.93-241.18-46.33c-599.14-115.06-1021.28-250.55-1411.54-453.04-466.71-242.16-900.85-597.49-1327.24-1086.29l-241.23-276.53-241.23,276.53c-426.41,488.82-860.55,844.15-1327.24,1086.29-390.27,202.49-812.41,337.97-1411.56,453.04l-241.17,46.33-17.73,244.94c-11.13,153.75-44.49,872.06,207.99,1776.16h86.13c-255.64-900.97-222.38-1617.75-211.35-1770.17Z"/>
      <path class="cls-2" d="M6191.52,5661.21c-41.54,146.41-90.7,297.67-148.84,452.18-217.97,579.3-526.43,1106.24-916.79,1566.21-472.93,557.25-1069.34,1019.08-1772.65,1372.66l-106.51,53.54-106.5-53.54c-703.32-353.58-1299.73-815.41-1772.67-1372.66-390.36-459.96-698.81-986.91-916.78-1566.21-58.14-154.51-107.3-305.77-148.84-452.18h-86.13c43.46,155.62,95.32,316.7,157.29,481.4,221.34,588.25,534.63,1123.44,931.19,1590.69,480.19,565.79,1085.34,1034.51,1798.67,1393.11l143.78,72.29,143.78-72.28c713.32-358.62,1318.48-827.33,1798.65-1393.12,396.56-467.26,709.85-1002.45,931.19-1590.68,61.97-164.7,113.83-325.78,157.29-481.41h-86.13Z"/>
      <path d="M5898.43,6059.12c-211.72,562.68-511.18,1074.33-890.05,1520.75-459.48,541.4-1039.65,990.46-1724.37,1334.69l-37.28,18.74-37.28-18.74c-684.73-344.24-1264.89-793.29-1724.38-1334.69-378.87-446.42-678.33-958.08-890.04-1520.75-51.04-135.65-94.96-268.66-132.76-397.9h-160.33c41.54,146.41,90.7,297.67,148.84,452.18,217.97,579.3,526.43,1106.26,916.78,1566.21,472.94,557.25,1069.35,1019.08,1772.67,1372.66l106.5,53.54,106.51-53.54c703.31-353.58,1299.72-815.41,1772.65-1372.66,390.36-459.97,698.82-986.91,916.79-1566.21,58.14-154.51,107.29-305.77,148.84-452.18h-160.33c-37.8,129.24-81.72,262.25-132.76,397.9Z"/>
      <path d="M6402.88,3891.04l-13.14-181.43-178.65-34.32c-607.46-116.66-1036.35-254.49-1434.11-460.88-476.09-247.03-918.19-608.61-1351.56-1105.4l-178.69-204.84-178.69,204.84c-433.37,496.8-875.47,858.38-1351.56,1105.4-397.77,206.38-826.66,344.21-1434.13,460.88l-178.64,34.32-13.13,181.44c-11.03,152.41-44.29,869.2,211.35,1770.17h160.33c-261.79-895.19-228.8-1609.14-217.96-1759.04l4.6-63.5,62.53-12.01c622.89-119.63,1064.32-261.81,1476.03-475.43,493.55-256.09,950.42-629.27,1396.72-1140.89l62.54-71.69,62.54,71.69c446.3,511.62,903.17,884.8,1396.72,1140.89,411.71,213.62,853.14,355.8,1476.03,475.43l62.53,12.01,4.6,63.5c10.85,149.91,43.83,863.87-217.96,1759.04h160.33c255.64-900.97,222.38-1617.75,211.35-1770.17Z"/>
      <path class="cls-2" d="M327.1,3908.16c1069.75-205.45,1953.31-535.51,2919.64-1643.27,966.32,1107.75,1849.89,1437.82,2919.64,1643.27,17.52,242.12,21.9,930.97-221.87,1753.05h86.69c261.79-895.18,228.8-1609.14,217.96-1759.04l-4.6-63.5-62.53-12.01c-622.89-119.63-1064.32-261.81-1476.03-475.43-493.55-256.09-950.42-629.27-1396.72-1140.89l-62.54-71.69-62.54,71.69c-446.3,511.62-903.17,884.8-1396.72,1140.89-411.71,213.62-853.14,355.8-1476.03,475.43l-62.53,12.01-4.6,63.5c-10.85,149.91-43.84,863.86,217.96,1759.04h86.69c-243.76-822.08-239.39-1510.93-221.87-1753.05Z"/>
      <path class="cls-2" d="M1485.08,7579.87c459.49,541.4,1039.65,990.46,1724.38,1334.69l37.28,18.74,37.28-18.74c684.73-344.24,1264.89-793.29,1724.37-1334.69,378.87-446.42,678.33-958.08,890.05-1520.75,51.04-135.65,94.96-268.66,132.76-397.9h-86.69c-315.15,1062.82-1045.07,2348.33-2697.77,3179.2-1652.7-830.87-2382.62-2116.38-2697.77-3179.2h-86.69c37.8,129.24,81.72,262.25,132.76,397.9,211.72,562.68,511.17,1074.33,890.04,1520.75Z"/>
      <path d="M3246.73,8840.41c1652.7-830.87,2382.62-2116.38,2697.77-3179.2H548.96c315.15,1062.82,1045.07,2348.33,2697.77,3179.2Z"/>
      <path class="cls-4" d="M6166.37,3908.16c-1069.75-205.45-1953.31-535.51-2919.64-1643.27-966.32,1107.75-1849.89,1437.82-2919.64,1643.27-17.52,242.12-21.9,930.97,221.87,1753.05h5395.54c243.76-822.08,239.39-1510.93,221.87-1753.05Z"/>
      <g>
        <path class="cls-2" d="M5126.06,6012.98s-636.06,853.38-2209,590.05v310.36s1272,324.46,2362.95-559.58l-153.95-340.82Z"/>
        <g>
          <path class="cls-1" d="M4850.8,5047s253.88,146.93,379.59,336.86l147.21-351.2s-200.68-164.85-394.2-283.11l-132.6,297.44Z"/>
          <path class="cls-1" d="M2161.12,4642.37l125.75,285.8s950.36-514.33,1978.12-152.71l128.47-292.52s-1078.16-410.94-2232.34,159.43Z"/>
          <path class="cls-2" d="M3685.59,6485.14l403.34-71.41,803.43-1847.64c76.71-168.63,216.46-279.95,362.03-417.95l-579.84-260.95c7.7,183.94,17.89,323.49-58.86,499.82l-930.09,2098.13Z"/>
          <path class="cls-2" d="M1875.28,4387.01c-76.75-176.34-66.57-315.88-58.86-499.82l-579.84,260.95c145.57,138,285.32,249.32,362.03,417.95l664.18,1527.42v-832.34l-387.51-874.16Z"/>
          <path class="cls-2" d="M3687.39,6008l7.66-656.51c-92.11,69.02-354.97,163.75-469.88,163.75h-468.92l-7.7-601.26-328.96,131.02v2183.16c0,115.02-91.27,305.94-152.52,405.57h481.49v-1788.77h468.92c115.1,0,385.47,86.25,469.92,163.05Z"/>
          <path class="cls-2" d="M2427.26,4343.12l328.98-92.74v-365.03h917.83c145.79,0,312.37,105.82,442.76,190.13v-505.93h-1854.04c69.05,92.02,164.47,276.94,164.47,481.03v292.54Z"/>
          <path class="cls-2" d="M2917.05,7092.08s63.74,23.51,144.72,23.51l184.7,383.88,148.19-359.88s143.95,12,347.89-6l-496.08,1139.63-329.42-728.77v-452.37Z"/>
          <path class="cls-2" d="M3857.68,7282.21l-147.25,351.51h462.37v-489.93s-147.25,114.86-315.12,138.42Z"/>
          <path class="cls-2" d="M1595.41,4990.35l140.07,306.29s-239.14,228.89-327.96,358.71c0,0,201.01,355.29,855.28,710.59l4.27,358.71c-874.09-372.03-1008.56-850.73-1309.77-1069.3,177.5-98.78,279.29-389.23,638.12-665Z"/>
        </g>
      </g>
    </g>
  </g>
</svg>